<svg xmlns="http://www.w3.org/2000/svg" viewBox="0 0 1254 1254">
  <defs>
    <radialGradient id="bg" cx="50%" cy="48%" r="78%">
      <stop offset="0" stop-color="#071d45"/>
      <stop offset="0.58" stop-color="#031533"/>
      <stop offset="1" stop-color="#000817"/>
    </radialGradient>
    <linearGradient id="legLeft" x1="580" y1="294" x2="347" y2="887" gradientUnits="userSpaceOnUse">
      <stop offset="0" stop-color="#16f3de"/>
      <stop offset="0.48" stop-color="#13bed8"/>
      <stop offset="1" stop-color="#2476dc"/>
    </linearGradient>
    <linearGradient id="legRight" x1="644" y1="294" x2="908" y2="912" gradientUnits="userSpaceOnUse">
      <stop offset="0" stop-color="#21f4df"/>
      <stop offset="0.44" stop-color="#16c8df"/>
      <stop offset="1" stop-color="#2478e8"/>
    </linearGradient>
    <linearGradient id="bar" x1="315" y1="868" x2="943" y2="890" gradientUnits="userSpaceOnUse">
      <stop offset="0" stop-color="#7962ff"/>
      <stop offset="0.44" stop-color="#4c59ff"/>
      <stop offset="1" stop-color="#8c4dff"/>
    </linearGradient>
    <linearGradient id="fold" x1="511" y1="762" x2="661" y2="956" gradientUnits="userSpaceOnUse">
      <stop offset="0" stop-color="#06122b" stop-opacity="0.08"/>
      <stop offset="1" stop-color="#020714" stop-opacity="0.72"/>
    </linearGradient>
  </defs>
  <rect width="1254" height="1254" fill="url(#bg)"/>
  <path d="M301 893 526 403c25-54 67-82 123-82s99 28 123 82l223 490c25 57-14 113-72 113-32 0-61-18-75-49L649 515 446 957c-15 34-47 54-83 54-58 0-88-61-62-118Z" fill="url(#legLeft)"/>
  <path d="M649 515 848 957c14 31 43 49 75 49 58 0 97-56 72-113L772 403c-24-54-67-82-123-82v194Z" fill="url(#legRight)" opacity="0.98"/>
  <path d="M306 897c94-90 208-135 341-135 135 0 250 45 344 135 40 38 30 101-17 129-35 21-80 15-109-13-58-56-131-84-218-84-86 0-159 28-217 84-30 28-74 34-109 13-47-28-56-91-15-129Z" fill="url(#bar)"/>
  <path d="M461 767c57-13 119-19 186-19 83 0 157 14 219 41l-136 45c-65-12-132-12-202-1l-67-66Z" fill="url(#fold)"/>
  <path d="M649 515 539 752c35-8 72-12 110-12 37 0 74 4 111 12L649 515Z" fill="#03102b" opacity="0.74"/>
</svg>
